<mxfile host="Electron" modified="2024-05-27T17:20:44.384Z" agent="Mozilla/5.0 (Windows NT 10.0; Win64; x64) AppleWebKit/537.36 (KHTML, like Gecko) draw.io/24.4.8 Chrome/124.0.6367.207 Electron/30.0.6 Safari/537.36" etag="M8sNtdr6RLZ2IoRNy8ua" version="24.4.8" type="device" pages="2">
  <diagram id="gUQD3CpSrdrV20NL8C3N" name="Spielautomat Simulator">
    <mxGraphModel dx="1418" dy="948" grid="1" gridSize="10" guides="1" tooltips="1" connect="1" arrows="1" fold="1" page="1" pageScale="1" pageWidth="827" pageHeight="1169" math="0" shadow="0">
      <root>
        <mxCell id="0" />
        <mxCell id="1" parent="0" />
      </root>
    </mxGraphModel>
  </diagram>
  <diagram id="C5RBs43oDa-KdzZeNtuy" name="Page-1">
    <mxGraphModel dx="810" dy="542" grid="1" gridSize="10" guides="1" tooltips="1" connect="1" arrows="1" fold="1" page="1" pageScale="1" pageWidth="827" pageHeight="1169" math="0" shadow="0">
      <root>
        <mxCell id="WIyWlLk6GJQsqaUBKTNV-0" />
        <mxCell id="WIyWlLk6GJQsqaUBKTNV-1" parent="WIyWlLk6GJQsqaUBKTNV-0" />
        <mxCell id="T9U_HN2HEXgQhHS5DSwu-6" style="edgeStyle=orthogonalEdgeStyle;rounded=0;orthogonalLoop=1;jettySize=auto;html=1;exitX=0.75;exitY=0;exitDx=0;exitDy=0;entryX=0.25;entryY=1;entryDx=0;entryDy=0;" parent="WIyWlLk6GJQsqaUBKTNV-1" source="T9U_HN2HEXgQhHS5DSwu-0" target="T9U_HN2HEXgQhHS5DSwu-4" edge="1">
          <mxGeometry relative="1" as="geometry" />
        </mxCell>
        <mxCell id="T9U_HN2HEXgQhHS5DSwu-0" value="Tastatur Emulator" style="rounded=1;whiteSpace=wrap;html=1;" parent="WIyWlLk6GJQsqaUBKTNV-1" vertex="1">
          <mxGeometry x="253" y="620" width="120" height="60" as="geometry" />
        </mxCell>
        <mxCell id="T9U_HN2HEXgQhHS5DSwu-7" style="edgeStyle=orthogonalEdgeStyle;rounded=0;orthogonalLoop=1;jettySize=auto;html=1;exitX=0.25;exitY=0;exitDx=0;exitDy=0;entryX=0.75;entryY=1;entryDx=0;entryDy=0;" parent="WIyWlLk6GJQsqaUBKTNV-1" source="T9U_HN2HEXgQhHS5DSwu-2" target="T9U_HN2HEXgQhHS5DSwu-4" edge="1">
          <mxGeometry relative="1" as="geometry" />
        </mxCell>
        <mxCell id="T9U_HN2HEXgQhHS5DSwu-12" style="edgeStyle=orthogonalEdgeStyle;rounded=0;orthogonalLoop=1;jettySize=auto;html=1;exitX=0.75;exitY=0;exitDx=0;exitDy=0;" parent="WIyWlLk6GJQsqaUBKTNV-1" source="T9U_HN2HEXgQhHS5DSwu-2" target="T9U_HN2HEXgQhHS5DSwu-11" edge="1">
          <mxGeometry relative="1" as="geometry" />
        </mxCell>
        <mxCell id="T9U_HN2HEXgQhHS5DSwu-2" value="HTML Video&lt;div&gt;Extractor&lt;/div&gt;" style="rounded=1;whiteSpace=wrap;html=1;" parent="WIyWlLk6GJQsqaUBKTNV-1" vertex="1">
          <mxGeometry x="453" y="620" width="120" height="60" as="geometry" />
        </mxCell>
        <mxCell id="T9U_HN2HEXgQhHS5DSwu-9" style="edgeStyle=orthogonalEdgeStyle;rounded=0;orthogonalLoop=1;jettySize=auto;html=1;entryX=0.5;entryY=1;entryDx=0;entryDy=0;exitX=0.5;exitY=0;exitDx=0;exitDy=0;" parent="WIyWlLk6GJQsqaUBKTNV-1" source="WiSaFaIVB0zJJV1lta83-2" target="T9U_HN2HEXgQhHS5DSwu-2" edge="1">
          <mxGeometry relative="1" as="geometry">
            <mxPoint x="510" y="750" as="sourcePoint" />
          </mxGeometry>
        </mxCell>
        <mxCell id="WiSaFaIVB0zJJV1lta83-1" style="edgeStyle=orthogonalEdgeStyle;rounded=0;orthogonalLoop=1;jettySize=auto;html=1;exitX=0.75;exitY=0;exitDx=0;exitDy=0;entryX=0.5;entryY=1;entryDx=0;entryDy=0;" edge="1" parent="WIyWlLk6GJQsqaUBKTNV-1" source="T9U_HN2HEXgQhHS5DSwu-3" target="WiSaFaIVB0zJJV1lta83-0">
          <mxGeometry relative="1" as="geometry" />
        </mxCell>
        <mxCell id="T9U_HN2HEXgQhHS5DSwu-3" value="Online Spielbank Mock" style="rounded=1;whiteSpace=wrap;html=1;" parent="WIyWlLk6GJQsqaUBKTNV-1" vertex="1">
          <mxGeometry x="373" y="930" width="120" height="60" as="geometry" />
        </mxCell>
        <mxCell id="T9U_HN2HEXgQhHS5DSwu-4" value="Latency Measurement" style="rounded=1;whiteSpace=wrap;html=1;" parent="WIyWlLk6GJQsqaUBKTNV-1" vertex="1">
          <mxGeometry x="353" y="520" width="120" height="60" as="geometry" />
        </mxCell>
        <mxCell id="T9U_HN2HEXgQhHS5DSwu-10" style="edgeStyle=orthogonalEdgeStyle;rounded=0;orthogonalLoop=1;jettySize=auto;html=1;exitX=0.5;exitY=1;exitDx=0;exitDy=0;entryX=0.5;entryY=0;entryDx=0;entryDy=0;" parent="WIyWlLk6GJQsqaUBKTNV-1" source="T9U_HN2HEXgQhHS5DSwu-5" target="T9U_HN2HEXgQhHS5DSwu-0" edge="1">
          <mxGeometry relative="1" as="geometry" />
        </mxCell>
        <mxCell id="T9U_HN2HEXgQhHS5DSwu-5" value="Latency&amp;nbsp;&lt;div&gt;Compesator&lt;/div&gt;" style="rounded=1;whiteSpace=wrap;html=1;" parent="WIyWlLk6GJQsqaUBKTNV-1" vertex="1">
          <mxGeometry x="253" y="440" width="120" height="60" as="geometry" />
        </mxCell>
        <mxCell id="T9U_HN2HEXgQhHS5DSwu-8" style="edgeStyle=orthogonalEdgeStyle;rounded=0;orthogonalLoop=1;jettySize=auto;html=1;exitX=0.5;exitY=1;exitDx=0;exitDy=0;entryX=0.298;entryY=-0.038;entryDx=0;entryDy=0;entryPerimeter=0;" parent="WIyWlLk6GJQsqaUBKTNV-1" source="T9U_HN2HEXgQhHS5DSwu-0" target="T9U_HN2HEXgQhHS5DSwu-3" edge="1">
          <mxGeometry relative="1" as="geometry" />
        </mxCell>
        <mxCell id="T9U_HN2HEXgQhHS5DSwu-14" style="edgeStyle=orthogonalEdgeStyle;rounded=0;orthogonalLoop=1;jettySize=auto;html=1;exitX=0.5;exitY=0;exitDx=0;exitDy=0;entryX=0.5;entryY=1;entryDx=0;entryDy=0;" parent="WIyWlLk6GJQsqaUBKTNV-1" source="T9U_HN2HEXgQhHS5DSwu-11" target="T9U_HN2HEXgQhHS5DSwu-13" edge="1">
          <mxGeometry relative="1" as="geometry" />
        </mxCell>
        <mxCell id="T9U_HN2HEXgQhHS5DSwu-11" value="Video&lt;div&gt;Analyzer&lt;/div&gt;" style="rounded=1;whiteSpace=wrap;html=1;" parent="WIyWlLk6GJQsqaUBKTNV-1" vertex="1">
          <mxGeometry x="453" y="440" width="120" height="60" as="geometry" />
        </mxCell>
        <mxCell id="T9U_HN2HEXgQhHS5DSwu-17" style="edgeStyle=orthogonalEdgeStyle;rounded=0;orthogonalLoop=1;jettySize=auto;html=1;exitX=0.5;exitY=0;exitDx=0;exitDy=0;entryX=0.5;entryY=1;entryDx=0;entryDy=0;" parent="WIyWlLk6GJQsqaUBKTNV-1" source="T9U_HN2HEXgQhHS5DSwu-13" target="T9U_HN2HEXgQhHS5DSwu-16" edge="1">
          <mxGeometry relative="1" as="geometry" />
        </mxCell>
        <mxCell id="T9U_HN2HEXgQhHS5DSwu-19" style="edgeStyle=orthogonalEdgeStyle;rounded=0;orthogonalLoop=1;jettySize=auto;html=1;exitX=1;exitY=0.5;exitDx=0;exitDy=0;entryX=0;entryY=0.5;entryDx=0;entryDy=0;" parent="WIyWlLk6GJQsqaUBKTNV-1" source="T9U_HN2HEXgQhHS5DSwu-13" target="T9U_HN2HEXgQhHS5DSwu-15" edge="1">
          <mxGeometry relative="1" as="geometry" />
        </mxCell>
        <mxCell id="T9U_HN2HEXgQhHS5DSwu-13" value="&lt;div&gt;Temp&lt;/div&gt;Database" style="rounded=1;whiteSpace=wrap;html=1;" parent="WIyWlLk6GJQsqaUBKTNV-1" vertex="1">
          <mxGeometry x="453" y="320" width="120" height="60" as="geometry" />
        </mxCell>
        <mxCell id="T9U_HN2HEXgQhHS5DSwu-15" value="&lt;div&gt;Logger&lt;/div&gt;Database" style="rounded=1;whiteSpace=wrap;html=1;" parent="WIyWlLk6GJQsqaUBKTNV-1" vertex="1">
          <mxGeometry x="650" y="320" width="120" height="60" as="geometry" />
        </mxCell>
        <mxCell id="T9U_HN2HEXgQhHS5DSwu-22" style="edgeStyle=orthogonalEdgeStyle;rounded=0;orthogonalLoop=1;jettySize=auto;html=1;exitX=0;exitY=0.5;exitDx=0;exitDy=0;entryX=0.5;entryY=0;entryDx=0;entryDy=0;" parent="WIyWlLk6GJQsqaUBKTNV-1" source="T9U_HN2HEXgQhHS5DSwu-16" target="T9U_HN2HEXgQhHS5DSwu-20" edge="1">
          <mxGeometry relative="1" as="geometry" />
        </mxCell>
        <mxCell id="T9U_HN2HEXgQhHS5DSwu-16" value="Statistik&lt;div&gt;&lt;/div&gt;&lt;div&gt;Modul&lt;/div&gt;" style="rounded=1;whiteSpace=wrap;html=1;" parent="WIyWlLk6GJQsqaUBKTNV-1" vertex="1">
          <mxGeometry x="453" y="210" width="120" height="60" as="geometry" />
        </mxCell>
        <mxCell id="T9U_HN2HEXgQhHS5DSwu-21" style="edgeStyle=orthogonalEdgeStyle;rounded=0;orthogonalLoop=1;jettySize=auto;html=1;" parent="WIyWlLk6GJQsqaUBKTNV-1" source="T9U_HN2HEXgQhHS5DSwu-20" target="T9U_HN2HEXgQhHS5DSwu-5" edge="1">
          <mxGeometry relative="1" as="geometry" />
        </mxCell>
        <mxCell id="T9U_HN2HEXgQhHS5DSwu-20" value="Player Mock&lt;div&gt;&lt;/div&gt;" style="rounded=1;whiteSpace=wrap;html=1;" parent="WIyWlLk6GJQsqaUBKTNV-1" vertex="1">
          <mxGeometry x="253" y="320" width="120" height="60" as="geometry" />
        </mxCell>
        <mxCell id="WiSaFaIVB0zJJV1lta83-3" style="edgeStyle=orthogonalEdgeStyle;rounded=0;orthogonalLoop=1;jettySize=auto;html=1;exitX=0.5;exitY=0;exitDx=0;exitDy=0;entryX=0.5;entryY=1;entryDx=0;entryDy=0;" edge="1" parent="WIyWlLk6GJQsqaUBKTNV-1" source="WiSaFaIVB0zJJV1lta83-0" target="WiSaFaIVB0zJJV1lta83-2">
          <mxGeometry relative="1" as="geometry" />
        </mxCell>
        <mxCell id="WiSaFaIVB0zJJV1lta83-0" value="Spielbank HTML Adapter" style="rounded=1;whiteSpace=wrap;html=1;" vertex="1" parent="WIyWlLk6GJQsqaUBKTNV-1">
          <mxGeometry x="453" y="820" width="120" height="60" as="geometry" />
        </mxCell>
        <mxCell id="WiSaFaIVB0zJJV1lta83-2" value="Spiel Adapter" style="rounded=1;whiteSpace=wrap;html=1;" vertex="1" parent="WIyWlLk6GJQsqaUBKTNV-1">
          <mxGeometry x="453" y="730" width="120" height="60" as="geometry" />
        </mxCell>
        <mxCell id="WiSaFaIVB0zJJV1lta83-6" style="edgeStyle=orthogonalEdgeStyle;rounded=0;orthogonalLoop=1;jettySize=auto;html=1;exitX=0;exitY=0.5;exitDx=0;exitDy=0;entryX=1;entryY=0.75;entryDx=0;entryDy=0;" edge="1" parent="WIyWlLk6GJQsqaUBKTNV-1" source="WiSaFaIVB0zJJV1lta83-4" target="WiSaFaIVB0zJJV1lta83-0">
          <mxGeometry relative="1" as="geometry" />
        </mxCell>
        <mxCell id="WiSaFaIVB0zJJV1lta83-4" value="Java JDK" style="rounded=1;whiteSpace=wrap;html=1;" vertex="1" parent="WIyWlLk6GJQsqaUBKTNV-1">
          <mxGeometry x="660" y="880" width="120" height="60" as="geometry" />
        </mxCell>
        <mxCell id="WiSaFaIVB0zJJV1lta83-7" style="edgeStyle=orthogonalEdgeStyle;rounded=0;orthogonalLoop=1;jettySize=auto;html=1;exitX=0;exitY=0.5;exitDx=0;exitDy=0;entryX=1;entryY=0.25;entryDx=0;entryDy=0;" edge="1" parent="WIyWlLk6GJQsqaUBKTNV-1" source="WiSaFaIVB0zJJV1lta83-5" target="WiSaFaIVB0zJJV1lta83-0">
          <mxGeometry relative="1" as="geometry" />
        </mxCell>
        <mxCell id="WiSaFaIVB0zJJV1lta83-5" value="Selenium WebDriver" style="rounded=1;whiteSpace=wrap;html=1;" vertex="1" parent="WIyWlLk6GJQsqaUBKTNV-1">
          <mxGeometry x="660" y="760" width="120" height="60" as="geometry" />
        </mxCell>
        <mxCell id="WiSaFaIVB0zJJV1lta83-10" style="edgeStyle=orthogonalEdgeStyle;rounded=0;orthogonalLoop=1;jettySize=auto;html=1;exitX=0.5;exitY=0;exitDx=0;exitDy=0;entryX=0.5;entryY=1;entryDx=0;entryDy=0;startArrow=classic;startFill=1;" edge="1" parent="WIyWlLk6GJQsqaUBKTNV-1" source="WiSaFaIVB0zJJV1lta83-8" target="T9U_HN2HEXgQhHS5DSwu-3">
          <mxGeometry relative="1" as="geometry" />
        </mxCell>
        <mxCell id="WiSaFaIVB0zJJV1lta83-8" value="Spielautomat HTML Generator" style="rounded=1;whiteSpace=wrap;html=1;fillColor=#fff2cc;strokeColor=#d6b656;" vertex="1" parent="WIyWlLk6GJQsqaUBKTNV-1">
          <mxGeometry x="373" y="1020" width="120" height="60" as="geometry" />
        </mxCell>
        <mxCell id="WiSaFaIVB0zJJV1lta83-11" style="edgeStyle=orthogonalEdgeStyle;rounded=0;orthogonalLoop=1;jettySize=auto;html=1;exitX=0.5;exitY=0;exitDx=0;exitDy=0;startArrow=classic;startFill=1;" edge="1" parent="WIyWlLk6GJQsqaUBKTNV-1" source="WiSaFaIVB0zJJV1lta83-9" target="WiSaFaIVB0zJJV1lta83-8">
          <mxGeometry relative="1" as="geometry" />
        </mxCell>
        <mxCell id="WiSaFaIVB0zJJV1lta83-16" style="edgeStyle=orthogonalEdgeStyle;rounded=0;orthogonalLoop=1;jettySize=auto;html=1;exitX=0;exitY=0.25;exitDx=0;exitDy=0;startArrow=classic;startFill=1;" edge="1" parent="WIyWlLk6GJQsqaUBKTNV-1" source="WiSaFaIVB0zJJV1lta83-9" target="WiSaFaIVB0zJJV1lta83-15">
          <mxGeometry relative="1" as="geometry" />
        </mxCell>
        <mxCell id="WiSaFaIVB0zJJV1lta83-9" value="Book of Ra&lt;div&gt;Simulator&lt;/div&gt;" style="rounded=1;whiteSpace=wrap;html=1;fillColor=#fff2cc;strokeColor=#d6b656;" vertex="1" parent="WIyWlLk6GJQsqaUBKTNV-1">
          <mxGeometry x="373" y="1120" width="120" height="60" as="geometry" />
        </mxCell>
        <mxCell id="WiSaFaIVB0zJJV1lta83-13" style="edgeStyle=orthogonalEdgeStyle;rounded=0;orthogonalLoop=1;jettySize=auto;html=1;entryX=1;entryY=0.5;entryDx=0;entryDy=0;" edge="1" parent="WIyWlLk6GJQsqaUBKTNV-1" source="WiSaFaIVB0zJJV1lta83-12" target="WiSaFaIVB0zJJV1lta83-9">
          <mxGeometry relative="1" as="geometry" />
        </mxCell>
        <mxCell id="WiSaFaIVB0zJJV1lta83-12" value="Mersenne Twister PRNG" style="rounded=1;whiteSpace=wrap;html=1;fillColor=#fff2cc;strokeColor=#d6b656;" vertex="1" parent="WIyWlLk6GJQsqaUBKTNV-1">
          <mxGeometry x="550" y="1120" width="120" height="60" as="geometry" />
        </mxCell>
        <mxCell id="WiSaFaIVB0zJJV1lta83-18" style="edgeStyle=orthogonalEdgeStyle;rounded=0;orthogonalLoop=1;jettySize=auto;html=1;exitX=0.5;exitY=0;exitDx=0;exitDy=0;entryX=0.5;entryY=1;entryDx=0;entryDy=0;startArrow=classic;startFill=1;" edge="1" parent="WIyWlLk6GJQsqaUBKTNV-1" source="WiSaFaIVB0zJJV1lta83-14" target="WiSaFaIVB0zJJV1lta83-15">
          <mxGeometry relative="1" as="geometry" />
        </mxCell>
        <mxCell id="WiSaFaIVB0zJJV1lta83-14" value="POC&lt;div&gt;Statistik&lt;div&gt;&lt;/div&gt;&lt;div&gt;Modul&lt;/div&gt;&lt;/div&gt;" style="rounded=1;whiteSpace=wrap;html=1;fillColor=#fff2cc;strokeColor=#d6b656;" vertex="1" parent="WIyWlLk6GJQsqaUBKTNV-1">
          <mxGeometry x="190" y="1169" width="120" height="60" as="geometry" />
        </mxCell>
        <mxCell id="WiSaFaIVB0zJJV1lta83-15" value="POC&amp;nbsp;&lt;div&gt;Player Mock&lt;div&gt;&lt;/div&gt;&lt;/div&gt;" style="rounded=1;whiteSpace=wrap;html=1;fillColor=#fff2cc;strokeColor=#d6b656;" vertex="1" parent="WIyWlLk6GJQsqaUBKTNV-1">
          <mxGeometry x="190" y="1070" width="120" height="60" as="geometry" />
        </mxCell>
        <mxCell id="WiSaFaIVB0zJJV1lta83-17" style="edgeStyle=orthogonalEdgeStyle;rounded=0;orthogonalLoop=1;jettySize=auto;html=1;exitX=1;exitY=0.5;exitDx=0;exitDy=0;entryX=0;entryY=0.75;entryDx=0;entryDy=0;startArrow=classic;startFill=1;" edge="1" parent="WIyWlLk6GJQsqaUBKTNV-1" source="WiSaFaIVB0zJJV1lta83-14" target="WiSaFaIVB0zJJV1lta83-9">
          <mxGeometry relative="1" as="geometry" />
        </mxCell>
      </root>
    </mxGraphModel>
  </diagram>
</mxfile>
